{"title":"Epic 2013 WEBRip AAC x264-SSDD","uid":8784606,"size":524503234,"categoryP":"video","categoryS":"movies","magnet":"?xt=urn:btih:f49ed44038f0035a9c2794a7c826a8a1e083a596&amp;dn=Epic+2013+WEBRip+AAC+x264-SSDD&amp;tr=udp%3A%2F%2Ftracker.openbittorrent.com%3A80&amp;tr=udp%3A%2F%2Fopen.demonii.com%3A1337&amp;tr=udp%3A%2F%2Ftracker.coppersurfer.tk%3A6969&amp;tr=udp%3A%2F%2Fexodus.desync.com%3A6969","seeders":2,"leechers":0,"uploader":"TeX","files":3,"time":1375799391,"description":"[img]http://img46.imageshack.us/img46/7660/yunt.jpg[/img]\n\nIMDB Link - http://www.imdb.com/title/tt0848537/\n\nSource - Epic.2013.WEB-DL.x264.AC3 - BiTo (Thumbs Up + Respect)\n\nNOTES - Enjoy.\n\nGeneral\nComplete name : Epic 2013 WEBRip AAC x264-SSDD.mp4\nFormat : MPEG-4\nFormat profile : Base Media\nCodec ID : isom\nFile size : 500 MiB\nDuration : 1h 36mn\nOverall bit rate mode : Variable\nOverall bit rate : 726 Kbps\n\nVideo\nID : 1\nFormat : AVC\nFormat/Info : Advanced Video Codec\nFormat profile : &lt;a class=&quot;__cf_email__&quot; href=&quot;/cdn-cgi/l/email-protection&quot; data-cfemail=&quot;f4b9959d9ab4b8c6dac5&quot;&gt;[email&amp;#160;protected]&lt;/a&gt;&lt;script cf-hash='f9e31' type=&quot;text/javascript&quot;&gt;\n/* &lt;![CDATA[ */!function(){try{var t=&quot;currentScript&quot;in document?document.currentScript:function(){for(var t=document.getElementsByTagName(&quot;script&quot;),e=t.length;e--;)if(t[e].getAttribute(&quot;cf-hash&quot;))return t[e]}();if(t&amp;&amp;t.previousSibling){var e,r,n,i,c=t.previousSibling,a=c.getAttribute(&quot;data-cfemail&quot;);if(a){for(e=&quot;&quot;,r=parseInt(a.substr(0,2),16),n=2;a.length-n;n+=2)i=parseInt(a.substr(n,2),16)^r,e+=String.fromCharCode(i);e=document.createTextNode(e),c.parentNode.replaceChild(e,c)}}}catch(u){}}();/* ]]&gt; */&lt;/script&gt;\nFormat settings, CABAC : Yes\nFormat settings, ReFrames : 4 frames\nCodec ID : avc1\nCodec ID/Info : Advanced Video Coding\nDuration : 1h 36mn\nBit rate : 677 Kbps\nMaximum bit rate : 2 296 Kbps\nWidth : 608 pixels\nHeight : 256 pixels\nDisplay aspect ratio : 2.40:1\nFrame rate mode : Constant\nFrame rate : 23.976 fps\nColor space : YUV\nChroma subsampling : 4:2:0\nBit depth : 8 bits\nScan type : Progressive\nBits/(Pixel*Frame) : 0.181\nStream size : 466 MiB (93%)\nWriting library : x264 core 133 r2334 a3ac64b\n\nAudio\nID : 2\nFormat : AAC\nFormat/Info : Advanced Audio Codec\nFormat profile : LC\nCodec ID : 40\nDuration : 1h 36mn\nBit rate mode : Variable\nBit rate : 45.0 Kbps\nMaximum bit rate : 68.8 Kbps\nChannel(s) : 2 channels\nChannel positions : Front: L R\nSampling rate : 48.0 KHz\nCompression mode : Lossy\nStream size : 31.0 MiB (6%)\n\n[img]http://lookpic.com/O/i2/960/cNirYV5.png[/img]\n[img]http://lookpic.com/O/i2/1529/63vRp4c6.png[/img]\n[img]http://lookpic.com/O/i2/121/YkBMXCu.png[/img]","torrent":{"xt":"urn:btih:f49ed44038f0035a9c2794a7c826a8a1e083a596","amp;dn":"Epic+2013+WEBRip+AAC+x264-SSDD","amp;tr":["udp%3A%2F%2Ftracker.openbittorrent.com%3A80","udp%3A%2F%2Fopen.demonii.com%3A1337","udp%3A%2F%2Ftracker.coppersurfer.tk%3A6969","udp%3A%2F%2Fexodus.desync.com%3A6969"],"infoHash":"f49ed44038f0035a9c2794a7c826a8a1e083a596","infoHashBuffer":{"type":"Buffer","data":[244,158,212,64,56,240,3,90,156,39,148,167,200,38,168,161,224,131,165,150]},"announce":[],"urlList":[]}}